<svg xmlns="http://www.w3.org/2000/svg" xmlns:xlink="http://www.w3.org/1999/xlink" version="1.1" width="215.4331pt" height="136.063pt" viewBox="0 0 215.4331 136.063">
<g id="layer_1" data-name="">
<path transform="matrix(1,0,0,-1,0,136.063)" d="M166.2432 31.4121C166.2432 27.1638 164.6731 23.7464 162.2718 21.8069 152.5742 14.326 132.81 20.6989 132.81 33.444 132.81 47.6668 148.326 46.8357 149.2495 47.2975 149.1571 49.0524 148.4181 48.221 146.6634 48.1286 138.9977 47.6668 131.794 42.495 131.794 34.5523 131.794 31.1352 132.071 29.1954 134.0104 26.24 135.2112 24.393 136.4119 23.1925 138.1666 21.8069 147.1252 14.9726 163.6571 16.7275 169.1986 24.2082 170.2145 25.5013 171.8768 27.7177 171.9692 29.5651H172.5233C172.8003 26.5173 177.1413 22.3611 179.3577 20.9758 189.4246 14.9726 205.4948 16.8197 210.759 26.3324 214.9152 33.9058 212.7909 43.3261 205.033 48.6828L197.1825 53.67C195.3354 54.7784 193.7653 55.7019 191.9183 56.8103 186.654 60.0426 179.8194 63.8294 179.8194 71.0331 179.8194 79.8996 194.5043 84.5172 204.2016 74.8199 206.6953 72.3263 207.896 70.8486 209.8355 67.8932L210.9438 65.9537C211.3132 65.3995 211.0363 65.6765 211.4056 65.3071V79.1606C210.1124 79.1606 202.1698 81.2849 195.5203 81.2849 189.7016 81.2849 183.8832 81.3773 179.3577 77.4981 173.5393 72.6032 172.8003 64.2912 176.4023 59.0267 183.7908 47.9441 206.2335 46.7433 206.2335 30.581 206.2335 19.2212 193.3036 16.2655 182.5903 20.514 168.2751 26.24 169.0138 47.0205 189.2398 47.0205 189.1477 48.8676 188.6859 48.3134 187.3928 48.1286 186.0999 48.0365 185.4533 48.0365 184.2525 47.7592 179.2653 46.9281 173.7241 43.4186 172.5233 38.4313 172.5233 38.5237 172.4309 38.6161 172.4309 38.6161 172.2464 38.154 172.4309 38.6161 172.0616 39.7242 170.7687 43.6031 169.1062 45.4504 166.0584 47.8517 158.3005 54.3166 139.9215 60.874 139.9215 70.0172V71.0331C139.9215 79.0682 150.9117 82.6702 159.224 78.4216 163.7495 76.0204 168.0902 71.2179 170.4915 66.6924L171.5074 65.3071V79.1606L163.9341 80.4535C154.1443 81.8391 139.5519 83.0395 135.2112 71.8645 133.9183 68.7243 133.9183 64.9378 135.1188 61.5203 139.2749 49.3294 166.2432 46.8357 166.2432 31.4121" fill="#eea80d" fill-rule="evenodd"/>
<path transform="matrix(1,0,0,-1,0,136.063)" d="M63.6347 28.5491C63.4499 29.4727 62.7111 31.1352 62.3418 31.9663 58.6474 41.1097 55.1378 51.1764 51.3513 60.5968 49.7812 64.5681 49.8736 62.9983 51.6283 67.7083 52.9211 71.4027 53.9371 74.4503 57.2621 76.9439 65.1124 82.9471 77.2112 77.3135 77.2112 66.8772 77.2112 63.1828 72.2239 51.7306 70.7462 47.4823 69.6379 44.1573 68.4371 41.2019 67.2367 37.9695ZM31.7716 18.5746H33.6186C34.0804 20.6065 36.0198 25.0396 36.7588 27.256L39.8991 35.8452C40.4532 37.1381 40.915 38.7082 41.3768 40.0014L44.6091 48.5904C45.0709 49.8835 45.8099 51.6382 46.1792 53.0237 46.7334 52.3772 46.8258 52.0078 47.1027 51.084L57.8163 22.9153C58.3705 21.6224 59.2016 19.8675 59.4785 18.5746H61.5104C61.6952 19.7751 62.157 20.4216 62.5263 21.53L76.657 60.135C78.8734 66.1382 79.0583 71.5873 74.4403 76.39 70.469 80.4535 63.4499 81.7466 58.3705 78.9758 56.6155 78.0523 55.5996 77.0363 54.3067 75.7434 53.106 74.5427 52.1824 72.788 51.6283 71.1255L49.7812 65.5841C48.9498 66.1382 47.1951 71.5873 46.641 72.8804 46.1792 74.1733 45.7174 75.3741 45.2557 76.667 44.7015 77.9598 44.3322 79.3454 43.778 80.4535H36.2047C36.3895 78.6988 45.625 55.8867 45.625 54.8708 45.625 54.1318 43.6856 49.3294 43.3162 48.3134L37.2206 31.6891C36.7588 30.581 36.574 29.1954 35.7429 28.5491 35.6505 29.4727 34.0804 33.3516 33.6186 34.4599L26.8767 52.0078C25.399 55.9791 23.8289 59.7657 22.3512 63.737L17.9181 75.4662C17.9181 78.4216 20.3193 79.3454 21.5201 79.9917L2.5869 80.2689C3.0487 79.9917 2.679 80.1765 3.1411 79.9917 6.8352 78.2371 9.7906 76.4821 11.2683 72.5108L15.9786 59.9505C20.1345 49.2369 24.3831 37.3229 28.5392 26.8866Z" fill="#eea80d" fill-rule="evenodd"/>
<path transform="matrix(1,0,0,-1,0,136.063)" d="M104.0871 80.4535H82.9372C82.9372 78.9758 82.383 76.667 82.1985 75.2817 81.9213 73.6191 81.3671 71.4949 81.3671 69.7402L84.3225 72.3263C84.6921 72.6956 84.8767 72.8804 85.246 73.1574 91.1571 77.9598 95.2206 79.4375 103.3481 79.4375V24.8547C103.3481 20.791 97.8066 19.3133 97.3449 18.5746H116.6474C116.5552 18.667 116.5552 18.7591 116.4628 18.667L112.9533 20.6065C112.0297 21.2528 110.6442 22.9153 110.6442 24.3006V79.4375C118.1251 79.4375 123.3896 77.9598 128.7462 73.2498 129.7621 72.3263 132.1634 69.925 132.81 69.7402 132.4406 71.4027 132.1634 73.2498 131.8864 75.0969 131.6092 76.8518 131.1474 78.8837 130.9629 80.4535H109.813C109.9979 81.7466 111.1983 84.702 111.6601 85.718 113.692 89.8739 115.8163 93.0141 119.7876 95.3232L122.0964 96.6161C120.5266 96.6161 118.0329 95.5077 116.8322 94.9535 114.2461 93.6607 112.7684 92.2754 110.9214 90.3359 110.3672 89.6893 109.9979 89.0427 109.4437 88.2116 108.8895 87.3802 108.6126 87.0109 108.2429 85.9949 107.8736 85.1638 107.6888 84.1479 106.95 83.5937 106.2111 86.6415 100.0233 93.1989 96.1444 95.1384 94.297 96.1543 92.6348 96.6161 90.0488 96.6161 90.3257 96.4312 90.0488 96.6161 90.5105 96.3388 90.7875 96.2467 90.8799 96.2467 91.2492 96.0619 94.7588 94.5842 96.3289 93.3834 99.0998 90.6129 102.9787 86.6415 103.4405 81.9312 104.0871 80.4535" fill="#eea80d" fill-rule="evenodd"/>
<path transform="matrix(1,0,0,-1,0,136.063)" d="M114.5234 107.0524C114.5234 105.6671 114.8003 104.8357 115.0775 103.7276 115.0775 103.7276 115.1697 103.9122 115.1697 103.8197L115.2621 104.0046C115.5393 104.3739 115.4469 104.1894 115.6314 104.4663 117.1091 107.0524 118.8641 107.9759 121.8195 108.6225 121.6346 106.1289 118.5868 103.081 116.0932 102.8962V102.4345C117.5712 102.0651 118.4023 101.3261 120.5266 101.3261 126.1602 101.3261 128.4693 108.5301 128.931 113.8867 127.7303 113.8867 127.9151 114.1639 126.5298 114.1639 122.0964 114.1639 114.5234 114.3485 114.5234 107.0524" fill="#eea80d" fill-rule="evenodd"/>
<path transform="matrix(1,0,0,-1,0,136.063)" d="M100.4851 111.0237C100.4851 108.2531 101.9628 106.4058 103.9946 105.1129 104.6412 104.6511 105.2875 104.2818 106.2111 104.1894 104.0871 107.4217 105.6569 110.1002 106.2111 112.3166 107.6888 111.9472 108.0584 109.3612 108.0584 107.8835 108.0584 106.2213 107.5966 105.5747 107.5042 104.1894 110.552 104.9281 113.2302 108.1607 112.3991 112.5014 111.8449 115.1799 110.1824 117.3039 108.7047 119.2433 108.0584 120.0747 107.5042 120.4441 106.95 121.1831 104.8258 119.7975 100.4851 114.4409 100.4851 111.0237" fill="#eea80d" fill-rule="evenodd"/>
<path transform="matrix(1,0,0,-1,0,136.063)" d="M84.0455 110.4695C84.0455 105.6671 85.8926 100.5874 91.0647 100.5874 92.45 100.5874 93.4659 100.9568 94.6667 101.0492 94.2046 101.7882 90.1412 102.7117 89.7715 107.8835 92.5424 107.6066 94.9436 104.5587 95.4978 102.1575 96.9755 103.2659 100.2078 113.148 85.7081 114.9026 84.2304 115.0875 84.3225 114.7181 84.2304 113.4249 84.2304 112.0397 84.0455 111.8548 84.0455 110.4695" fill="#eea80d" fill-rule="evenodd"/>
<path transform="matrix(1,0,0,-1,0,136.063)" d="M123.2048 95.046C126.2526 95.8771 124.4979 97.1702 131.2398 95.6001 130.8705 94.2148 129.3928 93.7531 127.9151 93.4758 125.4214 93.1065 125.329 93.5683 123.2048 93.7531 126.1602 88.1192 131.1474 87.9344 135.8578 91.5364 137.0582 92.4599 139.7367 94.6766 140.106 96.1543 136.0423 98.8325 134.8418 101.0492 129.208 101.0492 125.9756 101.0492 123.7589 97.7244 123.2048 95.046" fill="#eea80d" fill-rule="evenodd"/>
<path transform="matrix(1,0,0,-1,0,136.063)" d="M71.7622 93.4758C72.4085 92.5523 72.5933 92.5523 73.5168 91.9057 76.8416 89.0427 81.6443 85.718 85.8926 89.0427 87.0009 89.8739 88.3862 91.9981 88.6635 93.4758 85.7081 91.9057 83.4914 91.8136 80.3511 93.4758 81.8289 95.5077 86.1698 95.7849 88.6635 94.5842 88.1093 96.8009 85.1539 99.7563 82.1985 99.7563 78.6889 99.7563 76.1029 97.5396 73.7016 95.6925 72.8702 95.046 72.0391 94.5842 71.7622 93.4758" fill="#eea80d" fill-rule="evenodd"/>
<path transform="matrix(1,0,0,-1,0,136.063)" d="M90.5105 121.737C90.5105 119.2433 90.3257 117.7656 92.45 116.011 93.6507 114.9951 94.9436 114.9026 97.0679 114.9026 96.1444 116.1034 94.6667 116.011 94.6667 120.9059 96.5137 119.9823 97.8066 118.2274 97.8066 115.4568H98.3608C98.7301 116.9345 102.5169 120.0747 96.9755 124.7848 96.052 125.5238 93.2811 127.186 91.8034 127.186 91.7113 125.2466 90.5105 124.0461 90.5105 121.737" fill="#eea80d" fill-rule="evenodd"/>
<path transform="matrix(1,0,0,-1,0,136.063)" d="M70.469 109.4536C71.3004 107.6066 73.0551 99.9408 78.5041 101.0492 80.0742 101.3261 81.4595 102.1575 82.1985 103.1734 78.781 103.1734 77.7654 104.2818 76.4722 106.3134 80.3511 106.3134 80.4436 105.4823 82.6603 104.0046 82.6603 107.6066 80.9053 110.4695 77.4882 110.4695 74.9945 110.4695 72.5933 110.4695 70.469 109.4536" fill="#eea80d" fill-rule="evenodd"/>
<path transform="matrix(1,0,0,-1,0,136.063)" d="M112.4915 120.4441C112.4915 118.6894 113.7844 115.9186 115.6314 115.4568 114.9851 118.1353 116.0932 120.9983 117.6633 121.46 118.0329 118.874 118.3099 118.1353 116.3704 115.1799 119.0489 115.272 121.8195 117.3963 121.8195 120.1671 121.8195 125.5238 120.4342 124.9696 119.7876 128.0174 117.7557 127.925 112.4915 123.9537 112.4915 120.4441" fill="#eea80d" fill-rule="evenodd"/>
<path transform="matrix(1,0,0,-1,0,136.063)" d="M131.5168 105.4823C132.3482 106.1289 133.0869 108.4377 137.2431 108.4377 136.8737 106.5906 134.2877 104.8357 132.071 104.7436 133.1793 102.9886 137.7972 101.234 140.9374 106.0364 141.861 107.3293 143.2463 109.7308 143.2463 111.7624 140.5678 111.8548 135.7654 114.2561 132.5327 110.562 131.3323 109.1767 131.5168 107.8835 131.5168 105.4823" fill="#eea80d" fill-rule="evenodd"/>
<path transform="matrix(1,0,0,-1,0,136.063)" d="M102.0552 96.6161C102.0552 90.5204 111.1983 90.6129 111.1983 96.6161 111.1983 102.4345 102.0552 102.7117 102.0552 96.6161" fill="#eea80d" fill-rule="evenodd"/>
<path transform="matrix(1,0,0,-1,0,136.063)" d="M124.9597 120.6289C124.9597 119.613 125.9756 118.2274 126.5298 117.7656 126.5298 119.8899 127.1761 120.6289 128.3769 121.46 128.3769 118.874 128.0996 119.0588 127.0837 117.5811 133.0869 117.5811 131.055 123.3071 130.5011 125.6162 128.7462 125.5238 124.9597 123.6767 124.9597 120.6289" fill="#eea80d" fill-rule="evenodd"/>
<path transform="matrix(1,0,0,-1,0,136.063)" d="M98.915 126.1701C98.915 124.0461 100.8544 122.7529 103.0711 122.7529 101.9628 124.5078 101.778 123.5843 101.778 126.6321 102.5169 126.2625 102.7015 126.1701 103.0711 125.339 103.3481 124.7848 103.5329 123.8613 103.6253 123.0301 105.9341 124.6003 105.5648 127.4632 103.4405 129.4027 102.5169 130.1417 101.501 130.6035 100.4851 131.1574 99.7461 129.8645 98.915 128.1098 98.915 126.1701" fill="#eea80d" fill-rule="evenodd"/>
<path transform="matrix(1,0,0,-1,0,136.063)" d="M140.9374 100.5874C143.4311 101.8803 143.3387 101.6957 144.8164 101.3261 143.985 100.1256 142.969 99.7563 140.9374 99.7563 143.5232 95.8771 148.5105 99.2021 149.2495 102.6193 149.0647 102.7117 141.0296 107.2372 140.9374 100.5874" fill="#eea80d" fill-rule="evenodd"/>
<path transform="matrix(1,0,0,-1,0,136.063)" d="M64.9276 96.1543C66.3131 95.7849 72.6857 92.183 73.332 99.0173 71.5774 98.5555 72.9626 97.7244 69.0837 97.7244 70.0072 99.0173 70.8384 99.4791 73.0551 99.4791 72.3161 100.5874 71.3004 101.0492 69.9148 101.0492 67.1443 101.0492 65.02 97.4472 64.9276 96.1543" fill="#eea80d" fill-rule="evenodd"/>
<path transform="matrix(1,0,0,-1,0,136.063)" d="M108.0584 127.4632C108.0584 125.4314 108.8895 123.9537 111.1983 123.7689 110.0903 125.8007 110.3672 125.8007 110.9214 128.0174 112.4915 126.078 111.8449 125.2466 111.6601 123.7689 116.0932 124.9696 113.5074 131.7115 110.3672 132.4505 110.1824 131.527 109.4437 131.0652 108.8895 130.2338 108.4277 129.4951 108.0584 128.5716 108.0584 127.4632" fill="#eea80d" fill-rule="evenodd"/>
<path transform="matrix(1,0,0,-1,0,136.063)" d="M67.0518 84.1479V83.3168C71.3925 83.3168 74.071 83.1319 74.071 88.0268 74.071 89.0427 74.1634 88.1192 73.794 88.8582 72.5933 87.9344 72.8702 86.6415 70.469 86.4567 71.9467 89.6893 72.2239 88.1192 73.332 89.5969 70.8384 90.1511 69.0837 90.2435 67.883 87.6574 67.4212 86.7339 67.0518 85.4408 67.0518 84.1479" fill="#eea80d" fill-rule="evenodd"/>
<path transform="matrix(1,0,0,-1,0,136.063)" d="M133.0869 117.0269C133.0869 116.2879 133.1793 116.2879 133.3641 115.7338 134.1028 116.2879 133.8259 116.5652 134.7494 117.2117 135.396 117.6735 136.0423 117.7656 136.7813 118.0429 136.5041 115.5492 134.657 116.011 133.9183 114.9026 137.8896 113.0556 140.2909 116.2879 140.6602 120.6289 138.6283 120.6289 133.0869 121.9218 133.0869 117.0269" fill="#eea80d" fill-rule="evenodd"/>
<path transform="matrix(1,0,0,-1,0,136.063)" d="M139.0901 90.8898C140.9374 91.8136 141.122 91.3516 142.969 90.8898V90.428C141.7686 90.0587 141.122 89.4121 139.0901 90.428 139.2749 88.1192 141.9531 86.3646 145.3706 88.581 146.3865 89.1351 146.8483 89.8739 147.6794 90.428 145.4627 93.6607 140.1985 95.6925 139.0901 90.8898" fill="#eea80d" fill-rule="evenodd"/>
<path transform="matrix(1,0,0,-1,0,136.063)" d="M81.9213 122.476C81.9213 120.0747 83.0296 118.6894 85.8002 118.597 85.5232 119.7975 84.5073 119.7051 84.5073 122.476 86.1698 122.1066 86.262 120.4441 86.6316 118.874 88.2017 120.0747 88.7556 122.2911 87.0934 124.323L86.4468 124.9696C85.7081 125.6162 84.2304 126.7243 83.2144 126.9091 82.5678 125.7083 81.9213 124.323 81.9213 122.476" fill="#eea80d" fill-rule="evenodd"/>
<path transform="matrix(1,0,0,-1,0,136.063)" d="M73.6092 117.5811C73.8862 116.9345 73.8862 116.2879 74.1634 115.5492 76.2877 110.1002 80.1666 111.7624 81.0901 113.0556 79.1507 113.0556 78.2271 114.0715 77.4882 115.1799 80.0742 115.1799 79.8894 114.6257 81.3671 113.6098 81.3671 115.1799 81.3671 115.9186 80.6284 116.8421 79.2431 118.597 74.9945 118.2274 73.6092 117.5811" fill="#eea80d" fill-rule="evenodd"/>
<path transform="matrix(1,0,0,-1,0,136.063)" d="M186.654 3.7052C188.778 3.7052 188.3163 3.7976 188.5935 6.1064 188.778 7.3069 188.9629 8.5076 188.9629 9.4311L189.1477 9.1542C189.1477 9.0618 189.3322 8.877 189.3322 8.7846L190.533 4.7211C190.7175 4.1669 190.8099 3.7052 191.5489 3.7052 192.5649 3.7052 192.8418 5.5522 193.119 6.3833 193.396 7.2147 193.6732 8.6924 194.2271 9.4311 194.2271 8.4152 194.4119 7.4917 194.5043 6.3833 194.8737 3.8897 194.2271 3.7052 196.5362 3.7052 196.5362 5.3674 196.0744 7.3069 195.8896 9.0618 195.243 13.218 195.7972 12.5714 193.396 12.5714 193.0266 11.0937 191.9183 8.6 191.8259 7.1223L189.7016 12.5714C187.3928 12.5714 187.8545 13.218 187.3003 9.0618 187.0234 7.3069 186.654 5.3674 186.654 3.7052" fill="#1a1a18" fill-rule="evenodd"/>
<path transform="matrix(1,0,0,-1,0,136.063)" d="M83.4914 3.7052H85.3384L86.3544 8.6C86.4468 8.6924 86.4468 8.7846 86.4468 8.7846L86.6316 9.1542C86.8161 8.1383 87.0009 7.3069 87.2779 6.1988 87.8321 3.5203 87.6475 3.7052 88.9404 3.7052 90.0488 3.7052 90.1412 5.9216 90.6029 7.861 90.8799 8.877 91.5265 11.3706 91.6189 12.5714 89.4946 12.5714 89.8639 12.5714 89.4022 10.2626 89.2176 9.4311 88.9404 8.5076 88.9404 7.3993H88.4786C88.4786 8.5076 88.1093 9.4311 88.0169 10.2626 87.6475 12.202 87.8321 12.5714 86.3544 12.5714 85.1539 12.5714 84.5073 7.861 84.5073 6.8451 84.5073 6.9375 84.4149 7.0299 84.4149 7.0299L83.7683 9.9853C83.399 11.463 83.5838 12.5714 82.1985 12.5714 81.1826 12.5714 81.5519 11.9248 81.8289 10.9089Z" fill="#1a1a18" fill-rule="evenodd"/>
<path transform="matrix(1,0,0,-1,0,136.063)" d="M33.8958 3.7052C35.466 3.7052 35.0963 4.1669 35.466 6.014 35.6505 7.1223 35.9277 7.6765 35.9277 8.9694H36.4819C36.4819 7.6765 36.7588 7.1223 37.0358 6.014 37.4054 4.1669 36.9437 3.7052 38.6059 3.7052 39.8991 3.7052 41.1919 12.1096 41.1919 12.5714H39.6218C39.4373 11.6478 39.2525 11.0013 38.9755 9.8005 38.8831 9.4311 38.7907 8.877 38.6983 8.5076L38.3289 7.1223C37.4054 11.1861 37.8672 12.5714 35.9277 12.5714 35.0042 12.5714 35.0042 11.1861 34.727 10.1701 34.5421 8.9694 34.3576 8.1383 34.1728 7.1223L32.8799 12.5714H31.3098C31.3098 10.8164 32.4181 7.3993 32.7875 5.4598 32.9723 4.5363 32.9723 3.7052 33.8958 3.7052" fill="#1a1a18" fill-rule="evenodd"/>
<path transform="matrix(1,0,0,-1,0,136.063)" d="M93.3735 3.7052C95.7747 3.7052 95.2206 3.4279 95.2206 8.4152 96.6983 7.3993 97.2524 3.7052 99.1919 3.7052 99.7461 3.7052 99.9309 3.8897 99.9309 4.4439V11.8324C99.9309 12.5714 99.5615 12.5714 98.915 12.5714 97.6221 12.5714 98.0838 10.1701 98.0838 7.5841 97.9914 7.7689 97.8066 7.9534 97.6221 8.2307 97.3449 8.6924 97.5297 8.3228 97.2524 8.877 95.036 12.5714 95.5902 12.5714 93.3735 12.5714Z" fill="#1a1a18" fill-rule="evenodd"/>
<path transform="matrix(1,0,0,-1,0,136.063)" d="M147.6794 8.9694H146.1093V10.7243C148.326 10.7243 148.5105 11.0013 148.5105 9.7084 148.5105 9.1542 148.326 8.9694 147.6794 8.9694ZM144.0774 11.8324V4.4439C144.0774 3.6128 144.5391 3.7052 145.3706 3.7052 146.571 3.7052 146.1093 5.8292 146.1093 7.1223 148.326 6.4757 146.7558 3.7052 150.8196 3.7052 150.7272 4.7211 150.3578 4.8132 149.8037 5.5522 149.434 6.1988 148.8801 6.753 148.5105 7.3993 149.2495 7.6765 149.2495 7.4917 149.8961 8.0459 151.0041 9.1542 151.3738 12.5714 146.6634 12.5714 144.8164 12.5714 144.0774 12.8483 144.0774 11.8324" fill="#1a1a18" fill-rule="evenodd"/>
<path transform="matrix(1,0,0,-1,0,136.063)" d="M53.9371 3.7052C56.5231 3.7052 56.0614 3.2434 56.0614 7.3993H58.6474C58.6474 3.6128 58.3705 3.7052 60.0327 3.7052 60.5869 3.7052 60.7717 3.8897 60.7717 4.4439V11.8324C60.7717 12.9407 58.6474 12.9407 58.6474 11.8324V9.1542H56.0614C56.0614 13.0331 56.4307 12.5714 53.9371 12.5714Z" fill="#1a1a18" fill-rule="evenodd"/>
<path transform="matrix(1,0,0,-1,0,136.063)" d="M120.0645 11.8324V4.4439C120.0645 3.7052 120.4342 3.7052 121.0805 3.7052 122.3736 3.7052 121.8195 6.1988 121.8195 8.6924 123.482 6.8451 124.3131 3.7052 125.5139 3.7052H126.5298V12.5714C124.2207 12.5714 124.7749 12.8483 124.7749 7.861 124.1283 8.3228 123.482 9.616 123.1123 10.4471 121.0805 14.1415 120.0645 12.3866 120.0645 11.8324" fill="#1a1a18" fill-rule="evenodd"/>
<path transform="matrix(1,0,0,-1,0,136.063)" d="M75.0869 8.1383C75.0869 11.8324 78.5041 11.5554 78.5041 8.1383 78.5041 4.5363 75.0869 4.6287 75.0869 8.1383ZM73.0551 8.1383C73.0551 2.2275 80.6284 2.1351 80.6284 8.1383 80.6284 14.1415 73.0551 14.0491 73.0551 8.1383" fill="#1a1a18" fill-rule="evenodd"/>
<path transform="matrix(1,0,0,-1,0,136.063)" d="M135.6729 3.7052C138.4438 3.7052 137.7972 3.7976 137.7972 7.3993 138.5359 6.8451 139.1825 5.737 139.8291 4.9056 140.9374 3.5203 140.6602 3.7052 142.969 3.7052 142.6921 4.9056 140.6602 6.3833 139.6443 8.4152L141.3068 10.4471C141.861 11.1861 142.5073 11.5554 142.7845 12.5714H140.6602C139.8291 11.2782 138.8132 10.0777 137.7972 8.9694 137.7972 12.479 138.4438 12.5714 135.6729 12.5714Z" fill="#1a1a18" fill-rule="evenodd"/>
<path transform="matrix(1,0,0,-1,0,136.063)" d="M181.6668 10.4471C181.8513 9.4311 182.3131 8.1383 182.4055 7.1223H180.6508L181.3895 9.9853C181.5744 10.5395 181.482 10.1701 181.6668 10.4471ZM178.5266 3.7052C179.6349 3.7052 180.0967 3.7052 180.0967 5.2753H183.2366C183.2366 3.7052 183.6062 3.7052 184.8067 3.7052 186.0999 3.7052 185.0839 5.3674 184.2525 7.861 183.7908 9.2466 183.0521 11.0937 182.6827 12.5714H180.6508L178.2496 5.4598C177.9724 4.6287 177.3258 3.7052 178.5266 3.7052" fill="#1a1a18" fill-rule="evenodd"/>
<path transform="matrix(1,0,0,-1,0,136.063)" d="M114.5234 10.4471 114.7079 10.1701C115.2621 8.7846 114.431 11.1861 114.8927 9.8005L115.6314 7.1223H113.7844C113.7844 8.2307 114.3386 9.4311 114.5234 10.4471ZM110.9214 3.7052H112.7684C112.9533 4.2593 113.1378 4.6287 113.2302 5.2753H116.0932C116.278 4.6287 116.3704 4.2593 116.6474 3.7052H118.4947C118.4947 3.7976 116.278 12.5714 115.0775 12.5714 113.1378 12.5714 113.3226 11.8324 112.3991 8.5076 111.9373 7.0299 111.0138 5.0905 110.9214 3.7052" fill="#1a1a18" fill-rule="evenodd"/>
<path transform="matrix(1,0,0,-1,0,136.063)" d="M156.361 10.4471H158.6699C158.6699 3.7052 158.1157 3.7052 159.9627 3.7052 161.3483 3.7052 160.7941 6.6606 160.7941 10.4471 163.1954 10.4471 163.103 10.2626 163.103 11.8324 163.103 13.218 160.1476 12.5714 156.361 12.5714Z" fill="#1a1a18" fill-rule="evenodd"/>
<path transform="matrix(1,0,0,-1,0,136.063)" d="M65.4817 10.4471H67.7908C67.7908 3.7052 67.3291 3.7052 69.0837 3.7052 70.469 3.7052 69.9148 6.6606 69.9148 10.4471 72.3161 10.4471 72.2239 10.2626 72.2239 11.8324 72.2239 13.218 69.2685 12.5714 65.4817 12.5714Z" fill="#1a1a18" fill-rule="evenodd"/>
<path transform="matrix(1,0,0,-1,0,136.063)" d="M202.2622 10.4471H204.6634C204.6634 3.7052 204.1095 3.7052 205.9566 3.7052 207.3419 3.7052 206.6953 6.6606 206.6953 10.4471 209.0968 10.4471 209.0968 10.2626 209.0968 11.8324 209.0968 13.218 206.1411 12.5714 202.2622 12.5714Z" fill="#1a1a18" fill-rule="evenodd"/>
<path transform="matrix(1,0,0,-1,0,136.063)" d="M128.3769 10.2626C128.3769 7.1223 131.794 8.0459 131.794 6.014 131.794 4.3515 129.5773 5.737 129.208 6.014 128.5614 5.1829 128.4693 5.737 128.3769 4.4439 129.8546 4.0745 128.6538 3.7052 131.2398 3.7052 132.7175 3.7052 133.9183 5.0905 133.9183 6.5682 133.9183 9.1542 130.5011 7.9534 130.5011 11.0013 132.1634 11.0013 131.6092 10.8164 132.81 10.4471 133.3641 11.2782 133.3641 10.8164 133.6411 11.8324 131.9788 12.6638 132.2558 12.5714 130.5011 12.5714 129.5773 12.5714 128.3769 11.1861 128.3769 10.2626" fill="#1a1a18" fill-rule="evenodd"/>
<path transform="matrix(1,0,0,-1,0,136.063)" d="M171.5074 10.2626C171.5074 7.1223 174.8322 8.0459 174.8322 6.014 174.8322 4.3515 172.7082 5.737 172.2464 6.014 171.6922 5.1829 171.5998 5.737 171.5074 4.4439 172.8927 4.0745 171.7846 3.7052 174.3704 3.7052 175.8481 3.7052 176.9564 5.0905 176.9564 6.5682 176.9564 9.1542 173.5393 7.9534 173.5393 11.0013 175.2018 11.0013 174.74 10.8164 175.9405 10.4471 176.4023 11.2782 176.4023 10.8164 176.6795 11.8324 175.1094 12.6638 175.2939 12.5714 173.5393 12.5714 172.6157 12.5714 171.5074 11.1861 171.5074 10.2626" fill="#1a1a18" fill-rule="evenodd"/>
<path transform="matrix(1,0,0,-1,0,136.063)" d="M104.6412 10.2626C104.6412 7.3993 107.227 7.7689 107.8736 6.6606 108.2429 5.9216 108.0584 5.2753 107.227 5.2753 106.0265 5.2753 106.2111 5.737 105.1951 6.014 104.9182 5.0905 104.9182 5.5522 104.364 4.7211 109.2589 1.4885 112.3067 6.8451 107.8736 8.9694 106.5807 9.616 106.3959 9.616 106.7652 11.0013 108.3353 11.0013 107.8736 10.8164 109.0743 10.4471L109.813 11.3706C108.4277 13.5873 104.6412 12.7562 104.6412 10.2626" fill="#1a1a18" fill-rule="evenodd"/>
<path transform="matrix(1,0,0,-1,0,136.063)" d="M50.3354 5.8292C49.227 4.998 49.1346 4.9056 47.4721 6.014 47.1027 5.5522 47.0103 5.3674 46.641 4.7211 48.1187 3.7976 47.5645 3.7052 50.0581 3.7052 50.5199 3.7052 51.2589 4.2593 51.5358 4.6287 51.9976 5.1829 52.1824 5.8292 52.1824 6.5682 52.1824 9.0618 48.7653 8.7846 48.7653 10.2626 48.7653 11.8324 50.9817 10.5395 51.0741 10.4471 51.6283 11.2782 51.6283 10.8164 51.9055 11.8324 47.0103 14.4184 45.0709 9.5236 48.6729 7.4917 49.6888 6.9375 50.243 7.1223 50.3354 5.8292" fill="#1a1a18" fill-rule="evenodd"/>
<path transform="matrix(1,0,0,-1,0,136.063)" d="M164.6731 11.8324V4.4439C164.6731 3.5203 165.3197 3.7052 166.7974 3.7052V12.5714C165.3197 12.5714 164.6731 12.7562 164.6731 11.8324" fill="#1a1a18" fill-rule="evenodd"/>
<path transform="matrix(1,0,0,-1,0,136.063)" d="M152.3897 11.8324V4.4439C152.3897 3.5203 153.036 3.7052 154.5137 3.7052V12.5714C153.036 12.5714 152.3897 12.7562 152.3897 11.8324" fill="#1a1a18" fill-rule="evenodd"/>
<path transform="matrix(1,0,0,-1,0,136.063)" d="M210.6666 11.8324V4.4439C210.6666 3.5203 211.2208 3.7052 212.6985 3.7052V12.5714C211.2208 12.5714 210.6666 12.7562 210.6666 11.8324" fill="#1a1a18" fill-rule="evenodd"/>
<path transform="matrix(1,0,0,-1,0,136.063)" d="M198.3832 11.8324V4.4439C198.3832 3.5203 198.9374 3.7052 200.4151 3.7052V12.5714C198.9374 12.5714 198.3832 12.7562 198.3832 11.8324" fill="#1a1a18" fill-rule="evenodd"/>
<path transform="matrix(1,0,0,-1,0,136.063)" d="M43.039 11.8324V4.4439C43.039 3.3355 45.0709 3.3355 45.0709 4.4439V11.8324C45.0709 12.9407 43.039 12.9407 43.039 11.8324" fill="#1a1a18" fill-rule="evenodd"/>
</g>
</svg>
